<?xml version="1.0" encoding="iso-8859-1"?>
<!-- Generator: Adobe Illustrator 16.0.0, SVG Export Plug-In . SVG Version: 6.00 Build 0)  -->
<!DOCTYPE svg PUBLIC "-//W3C//DTD SVG 1.1//EN" "http://www.w3.org/Graphics/SVG/1.1/DTD/svg11.dtd">
<svg version="1.1" id="Capa_1" xmlns="http://www.w3.org/2000/svg" xmlns:xlink="http://www.w3.org/1999/xlink" x="0px" y="0px"
	 width="29.732px" height="29.732px" viewBox="0 0 29.732 29.732" style="enable-background:new 0 0 29.732 29.732;"
	 xml:space="preserve">
<g>
	<g>
		<path d="M11.696,10.494c0.169,0,0.33-0.035,0.479-0.094c0.068,0.739,0.685,1.427,1.708,1.639l-0.155,1.841
			c-0.233,0.041-0.456,0.168-0.696,0.465l0.141,0.113c0.168-0.21,0.322-0.318,0.483-0.373c-0.069,0.118-0.142,0.277-0.142,0.439
			h0.18c0-0.217,0.181-0.446,0.208-0.481c0.152-0.005,0.316,0.021,0.511,0.053l0.041,0.008l0.028-0.178l-0.039-0.006
			c-0.17-0.027-0.322-0.05-0.469-0.055l0.13-1.786c0.142,0.018,0.288,0.034,0.444,0.034c0.114,0,0.229-0.013,0.347-0.025
			l-0.131,2.219c-0.232,0.043-0.454,0.168-0.693,0.467l0.139,0.111c0.169-0.21,0.324-0.317,0.485-0.371
			c-0.069,0.116-0.142,0.277-0.142,0.438h0.179c0-0.217,0.18-0.446,0.208-0.482c0.152-0.003,0.317,0.022,0.511,0.054l0.041,0.008
			l0.028-0.178l-0.041-0.006c-0.17-0.027-0.323-0.052-0.472-0.055l0.115-2.241c1.33-0.269,2.662-1.377,2.662-2.2
			c0-0.053-0.006-0.103-0.015-0.151L20.1,8.402l-0.658-1.559l-1.962,2.354c-0.501-0.458-1.549-0.645-2.623-0.645
			c-0.74,0-1.41,0.188-1.896,0.494c-0.082-0.63-0.614-1.117-1.266-1.117c-0.708,0-1.283,0.575-1.283,1.282
			c0,0.13-0.815,0.378-0.78,0.496c0.033,0.105,0.913,0.083,0.971,0.173C10.828,10.25,11.233,10.494,11.696,10.494z M11.504,8.45
			c0.198,0,0.36,0.161,0.36,0.358c0,0.199-0.162,0.361-0.36,0.361c-0.199,0-0.36-0.162-0.36-0.361
			C11.143,8.611,11.305,8.45,11.504,8.45z"/>
		<path d="M3.991,3.111L3.445,2.565c-4.593,4.597-4.593,12.072,0,16.666l0.546-0.545C-0.3,14.394-0.3,7.406,3.991,3.111z"/>
		<path d="M26.289,2.565l-0.547,0.546c4.291,4.295,4.291,11.282,0,15.575l0.547,0.545C30.881,14.638,30.881,7.162,26.289,2.565z"/>
		<path d="M5.75,4.87c-1.609,1.608-2.498,3.75-2.498,6.029c0,2.277,0.889,4.419,2.498,6.029l0.546-0.547
			c-1.465-1.464-2.271-3.411-2.271-5.482c0-2.072,0.807-4.021,2.271-5.483L5.75,4.87z"/>
		<path d="M23.984,4.87l-0.546,0.546c3.022,3.023,3.022,7.942,0,10.968l0.546,0.545C27.309,13.602,27.309,8.195,23.984,4.87z"/>
		<path d="M8.053,7.173c-0.995,0.995-1.544,2.318-1.544,3.729c0,1.408,0.549,2.73,1.544,3.726l0.546-0.546
			c-0.85-0.848-1.318-1.977-1.318-3.18s0.468-2.334,1.318-3.184L8.053,7.173z"/>
		<path d="M21.136,7.719c0.849,0.85,1.315,1.979,1.315,3.182c0,1.202-0.467,2.333-1.315,3.182l0.546,0.546
			c0.995-0.994,1.542-2.317,1.542-3.728c0-1.408-0.547-2.731-1.542-3.728L21.136,7.719z"/>
		<polygon points="12.39,15.167 8.659,27.167 21.074,27.167 17.342,15.167 		"/>
	</g>
</g>
<g>
</g>
<g>
</g>
<g>
</g>
<g>
</g>
<g>
</g>
<g>
</g>
<g>
</g>
<g>
</g>
<g>
</g>
<g>
</g>
<g>
</g>
<g>
</g>
<g>
</g>
<g>
</g>
<g>
</g>
</svg>
